# xmcd
#
# Track frame offsets: 
#        150
#        22926
#        48939
#        69873
#        94810
#        120138
#        137227
#        162847
#        182986
#        196538
#        214889
#        234228
#        262372
#        282366
#
# Disc length: 4420 seconds
#
# Revision: 0
# Processed by: cddbd v1.5.2PL0 Copyright (c) Steve Scherf et al.
# Submitted via: ExactAudioCopy v0.99pb3
#
DISCID=be11420e
DTITLE=Sandra Pires - Destino
DYEAR=2006
DGENRE=Latin
TTITLE0=Corre, Corre
TTITLE1=Joanita
TTITLE2=Ser De Portugal
TTITLE3=Lá
TTITLE4=India Negra
TTITLE5=O Mar
TTITLE6=Laçador
TTITLE7=Chorei
TTITLE8=Quando Não Estás
TTITLE9=Canto Cigano
TTITLE10=Canção Do Vinho
TTITLE11=Dois Ritmos
TTITLE12=Viver
TTITLE13=O Amor
EXTD=
EXTT0=
EXTT1=
EXTT2=
EXTT3=
EXTT4=
EXTT5=
EXTT6=
EXTT7=
EXTT8=
EXTT9=
EXTT10=
EXTT11=
EXTT12=
EXTT13=
PLAYORDER=
